<svg t="1718629284255" class="icon" viewBox="0 0 1025 1024" version="1.1" xmlns="http://www.w3.org/2000/svg" p-id="4321" width="32" height="32"><path d="M981.333333 789.333333c0 106.666667-85.333333 192-192 192H234.666667c-106.666667 0-192-85.333333-192-192V234.666667c0-106.666667 85.333333-192 192-192h381.866666V0H234.666667C104.533333 0 0 104.533333 0 234.666667v554.666666c0 130.133333 104.533333 234.666667 234.666667 234.666667h554.666666c130.133333 0 234.666667-104.533333 234.666667-234.666667V390.4h-42.666667V789.333333z" p-id="4322" fill="#2c2c2c"></path><path d="M471.466667 552.533333c12.8 12.8 32 12.8 44.8 0L1015.466667 55.466667c12.8-12.8 12.8-32 0-44.8-12.8-12.8-32-12.8-44.8 0L471.466667 507.733333c-12.8 12.8-12.8 32 0 44.8z" p-id="4323" fill="#2c2c2c"></path></svg>